<?xml version="1.0" encoding="UTF-8"?> <!-- Generator: $$$/GeneralStr/196=Adobe Illustrator 27.6.0, SVG Export Plug-In . SVG Version: 6.00 Build 0) --> <svg xmlns="http://www.w3.org/2000/svg" xmlns:xlink="http://www.w3.org/1999/xlink" version="1.1" id="Ebene_1" x="0px" y="0px" viewBox="0 0 590 255.4" style="enable-background:new 0 0 590 255.4;" xml:space="preserve"> <style type="text/css"> .st0{fill:#009EE3;} .st1{fill:#FFFFFF;} .st2{fill:#59BDF7;} .st3{fill:#E82E82;} .st4{fill:#983082;} </style> <g> <rect x="570.8" y="128.1" class="st0" width="14.3" height="113.9"></rect> <g> <g> <path class="st1" d="M294.2,147.1v-18.6h2.3v18.6H294.2z"></path> <path class="st1" d="M317.7,128.5h2.3v18.6h-2l-11-14.5v14.5h-2.3v-18.6h2l11,14.5V128.5z"></path> <path class="st1" d="M327.2,141.8l2.2-0.7c0.6,2.3,2.7,4.2,5.9,4.2c2.9,0,4.7-1.6,4.7-3.3c0-1.4-0.9-2.1-3.2-3l-4.4-1.5 c-2.4-0.8-4.1-2.1-4.1-4.4c0-2.7,2.6-5.1,6.6-5.1c3.8,0,6.3,2,7.1,4.5l-2.2,0.7c-0.6-1.9-2.5-3.1-5.1-3.1s-4.1,1.3-4.1,2.8 c0,1.2,0.7,1.8,2.8,2.5l4.2,1.4c2.9,1,4.8,2.2,4.8,4.8c0,3.2-2.9,5.7-7.2,5.7C330.8,147.4,327.9,144.8,327.2,141.8z"></path> <path class="st1" d="M362.9,130.6h-6.8v16.5h-2.3v-16.5H347v-2.1h15.9V130.6z"></path> <path class="st1" d="M369.5,147.1v-18.6h2.3v18.6H369.5z"></path> <path class="st1" d="M394.3,130.6h-6.8v16.5h-2.3v-16.5h-6.8v-2.1h15.9L394.3,130.6L394.3,130.6z"></path> <path class="st1" d="M413.8,128.5h2.3v11.2c0,4.6-2.8,7.8-7.7,7.8c-4.9,0-7.7-3.1-7.7-7.8v-11.2h2.4v11.1c0,3.3,1.8,5.7,5.3,5.7 s5.4-2.3,5.4-5.7L413.8,128.5L413.8,128.5z"></path> <path class="st1" d="M438.4,130.6h-6.8v16.5h-2.3v-16.5h-6.8v-2.1h15.9L438.4,130.6L438.4,130.6z"></path> <path class="st1" d="M458.2,130.6h-10.9v6h9.5v2h-9.5v6.3h10.9v2.1h-13.1v-18.6h13.2v2.2H458.2z"></path> <path class="st1" d="M490,130.6h-10.6v6.3h9.3v2.1h-9.3v8.1H477v-18.6h13V130.6z"></path> <path class="st1" d="M495.5,137.8c0-5.5,4.1-9.6,9.6-9.6s9.6,4.2,9.6,9.6c0,5.5-4.1,9.7-9.6,9.7 C499.6,147.4,495.5,143.3,495.5,137.8z M512.4,137.7c0-4-2.9-7.4-7.3-7.4c-4.4,0-7.3,3.4-7.3,7.4c0,4.2,2.9,7.6,7.3,7.6 S512.4,141.9,512.4,137.7z"></path> <path class="st1" d="M534.4,147.1l-4.8-7.2h-5.2v7.2h-2.3v-18.6h8.7c3.9,0,6,3,6,5.7c0,2.5-1.6,4.9-4.5,5.5l4.9,7.3h-2.8 L534.4,147.1L534.4,147.1z M524.4,130.6v7.2h6.3c2.4,0,3.8-1.7,3.8-3.6c0-1.9-1.4-3.6-3.8-3.6L524.4,130.6L524.4,130.6z"></path> </g> <g> <path class="st1" d="M238.3,159.6h2.2v18.6h-2.3v-14.6l-6.7,9.5l-6.7-9.5v14.6h-2.3v-18.6h2.2l6.8,9.8L238.3,159.6z"></path> <path class="st1" d="M260.6,178.2l-1.9-4.9h-9.2l-1.9,4.9H245l7.6-18.6h2.9l7.6,18.6H260.6z M250.2,171.3h7.5l-3.8-9.4 L250.2,171.3z"></path> <path class="st1" d="M264.7,168.9c0-5.5,4.2-9.6,9.6-9.6c4.5,0,7.7,2.6,8.8,5.7l-2.3,0.6c-0.9-2.3-3.2-4.1-6.5-4.1 c-4.4,0-7.3,3.4-7.3,7.4c0,4.1,2.9,7.5,7.3,7.5c3.2,0,5.6-1.8,6.5-4l2.2,0.6c-1.1,3.1-4.3,5.6-8.7,5.6 C268.9,178.5,264.7,174.4,264.7,168.9z"></path> <path class="st1" d="M301.3,159.6h2.3v18.6h-2.3v-8.4h-10.5v8.4h-2.3v-18.6h2.3v8.1h10.5V159.6z"></path> <path class="st1" d="M311.8,178.2v-18.6h2.3v18.6H311.8z"></path> <path class="st1" d="M335.3,159.6h2.3v18.6h-2l-11-14.5v14.5h-2.3v-18.6h2l11,14.5V159.6z"></path> <path class="st1" d="M359,161.7h-10.9v6h9.5v2h-9.5v6.3H359v2.1h-13.1v-18.6H359V161.7z"></path> <path class="st1" d="M380.1,176h10.2v2.2h-12.5v-18.6h2.3V176z"></path> <path class="st1" d="M410.4,161.7h-10.9v6h9.5v2h-9.5v6.3h10.9v2.1h-13.1v-18.6h13.2v2.2H410.4z"></path> <path class="st1" d="M431.9,178.2l-1.9-4.9h-9.2l-1.9,4.9h-2.5l7.6-18.6h2.9l7.6,18.6H431.9z M421.6,171.3h7.5l-3.8-9.4 L421.6,171.3z"></path> <path class="st1" d="M453.2,178.2l-4.8-7.2h-5.2v7.2h-2.3v-18.6h8.7c3.9,0,6,3,6,5.7c0,2.5-1.6,4.9-4.5,5.5l4.9,7.3h-2.8 L453.2,178.2L453.2,178.2z M443.2,161.7v7.2h6.3c2.4,0,3.8-1.7,3.8-3.6s-1.4-3.6-3.8-3.6L443.2,161.7L443.2,161.7z"></path> <path class="st1" d="M476.2,159.6h2.3v18.6h-2l-11-14.5v14.5h-2.3v-18.6h2l11,14.5V159.6z"></path> <path class="st1" d="M486.7,178.2v-18.6h2.3v18.6H486.7z"></path> <path class="st1" d="M510.2,159.6h2.3v18.6h-2l-11-14.5v14.5h-2.3v-18.6h2l11,14.5V159.6z"></path> <path class="st1" d="M537.1,169.5c0,5.7-4,9-9.3,9c-5.6,0-9.8-4.2-9.8-9.7s4.2-9.6,9.7-9.6c4.3,0,7.5,2.4,8.8,5.5l-2.2,0.6 c-1-2.3-3.2-3.9-6.5-3.9c-4.4,0-7.3,3.4-7.3,7.4c0,4.1,2.9,7.5,7.5,7.5c3.9,0,6.6-2.4,6.8-6.1h-7.1v-2h9.4L537.1,169.5 L537.1,169.5z"></path> </g> <g> <path class="st1" d="M291.7,210.1l-1.9-4.9h-9.2l-1.9,4.9h-2.5l7.6-18.6h2.9l7.6,18.6H291.7z M281.4,203.2h7.5l-3.8-9.4 L281.4,203.2z"></path> <path class="st1" d="M313.7,191.5h2.3v18.6h-2l-11-14.5v14.5h-2.3v-18.6h2l11,14.5V191.5z"></path> <path class="st1" d="M331.4,191.5c5.7,0,9.1,4,9.1,9.3c0,5.4-3.4,9.3-9.1,9.3h-7.2v-18.6L331.4,191.5L331.4,191.5z M331.4,208 c4.3,0,6.8-3.1,6.8-7.2c0-4-2.5-7.1-6.8-7.1h-4.9V208H331.4z"></path> <path class="st1" d="M372.8,210.1l-1.9-4.9h-9.2l-1.9,4.9h-2.5l7.6-18.6h2.9l7.6,18.6H372.8z M362.5,203.2h7.5l-3.8-9.4 L362.5,203.2z"></path> <path class="st1" d="M394.1,210.1l-4.8-7.2h-5.2v7.2h-2.3v-18.6h8.7c3.9,0,6,3,6,5.7c0,2.5-1.6,4.9-4.5,5.5l4.9,7.3h-2.8 L394.1,210.1L394.1,210.1z M384.1,193.6v7.2h6.3c2.4,0,3.8-1.7,3.8-3.6s-1.4-3.6-3.8-3.6H384.1z"></path> <path class="st1" d="M418.4,193.6h-6.8v16.5h-2.3v-16.5h-6.8v-2.1h15.9L418.4,193.6L418.4,193.6z"></path> <path class="st1" d="M425,210.1v-18.6h2.3v18.6H425z"></path> <path class="st1" d="M449.5,193.6h-10.6v6.3h9.3v2.1h-9.3v8.1h-2.3v-18.6h13v2.1H449.5z"></path> <path class="st1" d="M456.2,210.1v-18.6h2.3v18.6H456.2z"></path> <path class="st1" d="M465.9,200.8c0-5.5,4.2-9.6,9.6-9.6c4.5,0,7.7,2.6,8.8,5.7l-2.3,0.6c-0.9-2.3-3.2-4.1-6.5-4.1 c-4.4,0-7.3,3.4-7.3,7.4c0,4.1,2.9,7.5,7.3,7.5c3.2,0,5.6-1.8,6.5-4l2.2,0.6c-1.1,3.1-4.3,5.6-8.7,5.6 C470,210.5,465.9,206.3,465.9,200.8z"></path> <path class="st1" d="M491.6,210.1v-18.6h2.3v18.6H491.6z"></path> <path class="st1" d="M515.9,210.1l-1.9-4.9h-9.2l-1.9,4.9h-2.5l7.6-18.6h2.9l7.6,18.6H515.9z M505.6,203.2h7.5l-3.8-9.4 L505.6,203.2z"></path> <path class="st1" d="M527.3,208h10.2v2.2H525v-18.6h2.3V208z"></path> </g> <g> <path class="st1" d="M302.7,242v-18.6h2.3V242H302.7z"></path> <path class="st1" d="M326.2,223.4h2.3V242h-2l-11-14.5V242h-2.3v-18.6h2l11,14.5V223.4z"></path> <path class="st1" d="M351.1,225.6h-6.8V242H342v-16.5h-6.8v-2.1h15.9V225.6z"></path> <path class="st1" d="M370.9,225.6H360v6h9.5v2H360v6.3h10.9v2.1h-13.1v-18.6H371v2.2H370.9z"></path> <path class="st1" d="M380.9,239.9H391v2.2h-12.5v-18.6h2.3v16.4H380.9z"></path> <path class="st1" d="M400.3,239.9h10.2v2.2H398v-18.6h2.3V239.9z"></path> <path class="st1" d="M418.4,242v-18.6h2.3V242H418.4z"></path> <path class="st1" d="M447.1,233.3c0,5.7-4,9-9.3,9c-5.6,0-9.8-4.2-9.8-9.7s4.2-9.6,9.7-9.6c4.3,0,7.5,2.4,8.8,5.5l-2.2,0.6 c-1-2.3-3.2-3.9-6.5-3.9c-4.4,0-7.3,3.4-7.3,7.4c0,4.1,2.9,7.5,7.5,7.5c3.9,0,6.6-2.4,6.8-6.1h-7.1v-2h9.4L447.1,233.3 L447.1,233.3z"></path> <path class="st1" d="M467.6,225.6h-10.9v6h9.5v2h-9.5v6.3h10.9v2.1h-13.1v-18.6h13.2v2.2H467.6z"></path> <path class="st1" d="M488.2,223.4h2.3V242h-2l-11-14.5V242h-2.3v-18.6h2l11,14.5V223.4z"></path> <path class="st1" d="M497.9,232.7c0-5.5,4.2-9.6,9.6-9.6c4.5,0,7.7,2.6,8.8,5.7l-2.3,0.6c-0.9-2.3-3.2-4.1-6.5-4.1 c-4.4,0-7.3,3.4-7.3,7.4c0,4.1,2.9,7.5,7.3,7.5c3.2,0,5.6-1.8,6.5-4l2.2,0.6c-1.1,3.1-4.3,5.6-8.7,5.6 C502,242.4,497.9,238.2,497.9,232.7z"></path> <path class="st1" d="M536.8,225.6h-10.9v6h9.5v2h-9.5v6.3h10.9v2.1h-13.1v-18.6h13.2v2.2H536.8z"></path> </g> </g> </g> <polygon class="st2" points="62.6,170 118.4,128.6 62.6,87.2 "></polygon> <polygon class="st3" points="62.6,252.7 118.4,211.3 62.6,170 "></polygon> <polygon class="st0" points="118.4,211.3 174.2,170 118.4,128.6 "></polygon> <polygon class="st0" points="6.8,128.6 62.6,170 62.6,87.2 "></polygon> <polygon class="st3" points="6.8,128.6 62.6,87.2 6.8,45.9 "></polygon> <polygon class="st4" points="6.8,45.9 62.6,87.2 62.6,4.5 "></polygon> <polygon class="st0" points="6.8,211.3 62.6,252.7 62.6,170 "></polygon> <g> <polygon class="st1" points="176.1,70.6 170.9,85.1 118.9,85.1 118.9,5.2 133.8,5.2 133.8,70.6 "></polygon> <g> <path class="st1" d="M228.2,5.2h-19.3l-29.4,79.9h15.4l6.3-17.8h34.6l6.3,17.8h15.3L228.2,5.2z M206.2,53.8l12.4-33.9L231,53.8 H206.2z"></path> </g> <g> <path class="st1" d="M333.2,5.2H348v79.9h-15.6V32l-25.7,35.2L281,32v53.1h-15.6V5.2h14.8l26.5,37.9L333.2,5.2z"></path> </g> <g> <path class="st1" d="M492.4,85.1l-17.8-28.4h-16.4v28.4h-14.7V5.2h37.3c16.6,0,26.1,13.3,26.1,25.9c0,10.3-5.9,20.3-16.8,24.1 l19.1,30L492.4,85.1L492.4,85.1z M458.2,18.9v24.3h21.7c7.8,0,12.7-5.6,12.7-12.1s-5-12.1-12.1-12.1L458.2,18.9L458.2,18.9z"></path> <path class="st1" d="M569.9,85.1l-17.2-28.4h-16.4v28.4h-14.7V5.2h37.3c16.6,0,26.1,13.3,26.1,25.9c0,10.3-5.9,20.3-16.8,24.1 l19.6,30L569.9,85.1z M536.3,18.9v24.3H558c7.8,0,12.7-5.6,12.7-12.1s-5-12.1-12.1-12.1L536.3,18.9L536.3,18.9z"></path> </g> </g> <g> <path class="st1" d="M404.2,5.2h-19.3l-29.4,79.9h15.4l6.3-17.8h34.6l6.3,17.8h15.3L404.2,5.2z M382.2,53.8l12.4-33.9L407,53.8 H382.2z"></path> </g> </svg> 